<?xml version="1.0" encoding="UTF-8" standalone="yes"?>
<svg version="1.1" id="Layer_1" xmlns:x="&amp;ns_extend;" xmlns:i="&amp;ns_ai;" xmlns:graph="&amp;ns_graphs;" xmlns="http://www.w3.org/2000/svg" xmlns:xlink="http://www.w3.org/1999/xlink" x="0px" y="0px" viewBox="0 0 269.449 315" style="enable-background:new 0 0 269.449 315;" xml:space="preserve">
      <style type="text/css">.st0{fill:#3A3A3A;}</style>
    <metadata>
              <sfw>
                      <slices/>
            <sliceSourceBounds bottomLeftOrigin="true" height="315" width="269.449" x="-224.776" y="-153.432"/>
                  </sfw>
          </metadata>
    <g id="color_index_0" fill="rgba(58, 58, 58, 1)">
              <path d="M165.883,138.858c6.81-15.994-13.917-16.555-12.016-1.908C154.413,145.232,161.729,146.699,165.883,138.858z"/>
        <path d="M14.816,56.709c-0.021,0.012-0.041,0.025-0.052,0.041C14.552,57.007,14.692,56.852,14.816,56.709z"/>
        <path d="M197.409,153.031c0.487,6.446,6.03,7.492,9.1,1.328C211.511,141.807,195.839,141.644,197.409,153.031z&#x9;&#x9; M199.107,147.632c0.069-0.066,0.138-0.133,0.193-0.185C199.662,147.624,199.303,147.99,199.107,147.632z"/>
        <path d="M58.178,207.506c0,0.003,0.001,0.003,0.001,0.007C58.18,207.51,58.178,207.509,58.178,207.506z"/>
        <path d="M58.06,207.466c-0.018,0.006-0.03,0.008-0.053,0.017c0,0,0.146,0.142,0.146,0.142l-0.146-0.142&#x9;&#x9;C58.03,207.474,58.042,207.472,58.06,207.466z"/>
        <path d="M58.179,207.513c-0.004,0.028-0.013,0.065-0.026,0.112C58.166,207.578,58.176,207.541,58.179,207.513z"/>
        <path d="M1.282,39.304c0.169,0.136,0.178,0.236,0.054,0.356c0.566,1.524,4.128,5.634,4.041,6.636&#x9;&#x9;c2.4,3.034,3.123,4.293,5.853,8.345c0.265-0.702,0.451-1.42,0.67-2.115c-0.289,0.834-0.282,1.677-0.31,2.687&#x9;&#x9;c2.618,4.526,6.187,9.35,9.503,14.389c1.107-1.919,2.262-3.11,3.13-5.138c1.236-0.844,1.624-4.57,3.221-2.666&#x9;&#x9;c2.139,1.717,5.636,4.586,8.223,6.687c-0.004-0.006-0.007-0.012-0.011-0.017c0.766-0.441,0.807,0.01,1.038,0.652&#x9;&#x9;c-0.062,0.029-0.115,0.045-0.167,0.06c3.721,3.209,8.074,6.967,11.6,9.925c0.39,0.324,0.934-0.156,0.661-0.585&#x9;&#x9;c-5.055-7.612-10.028-15.299-15.514-22.827c0.44,0.161-5.161-7.5-7.406-10.907c-0.428-0.887-3.692,4.987-5.277,7.605&#x9;&#x9;c0.21,1.807-9.771-7.155-9.445-6.742c-1.81,2.027-2.924-0.809-5.114-2.442c0.36-0.334,0.693-0.559,1.01-0.711&#x9;&#x9;c-2.574-2.322-6.264-5.762-6.613-5.191c-1.012,0.167-0.01,1.228,0.727,2.13C1.18,39.392,1.218,39.35,1.282,39.304z M27.136,54.139&#x9;&#x9;c0.275,0.483,0.179,0.682-0.355,0.838C26.22,54.48,26.662,54.343,27.136,54.139z M24.482,57.968&#x9;&#x9;c0.037,0.271-0.067,0.321-0.317,0.281C24.127,57.968,24.231,57.931,24.482,57.968z M22.321,55.301&#x9;&#x9;c0.008,0.01,0.117-0.367,0.116-0.246L22.321,55.301z M22.431,55.022c-0.374,0.067-1.056,0.799-1.163,0.29&#x9;&#x9;C21.643,55.196,22.089,55.195,22.431,55.022z M21.776,59.028c-0.172,0.188-0.336,0.545-0.535,0.219&#x9;&#x9;C21.237,58.746,21.394,58.74,21.776,59.028z M19.423,58.382c-0.383,0.374-1.005,0.626-1.262,1.066&#x9;&#x9;C18.388,58.516,18.439,57.068,19.423,58.382z M16.869,58.718c0.47,0.217,0.912,0.591,1.262,0.666&#x9;&#x9;C17.418,59.427,16.345,59.796,16.869,58.718z M16.601,55.47c-1.066,1.56-1.995,2.815-2.296,0.439&#x9;&#x9;C14.848,54.741,15.731,53.964,16.601,55.47z M14.372,50.357c-0.506,0.492-1.161,0.805-1.54,1.349&#x9;&#x9;C13.363,51.174,13.737,49.457,14.372,50.357z M12.776,51.648c-0.019,0.318-0.6,0.621-0.823,0.933&#x9;&#x9;C11.987,52.264,12.552,51.957,12.776,51.648z M10.008,51.332c0.059-0.028,0.158-0.059,0.207-0.105l-0.122-0.073&#x9;&#x9;c0.025,0.009,0.092,0.033,0.134,0.066c0.006-0.004,0.014-0.009,0.019-0.013c0.007,0.014-0.001,0.019-0.002,0.029&#x9;&#x9;c0.006,0.009,0.025,0.013,0.024,0.023l-0.025-0.015C10.153,51.279,9.622,51.596,10.008,51.332z"/>
        <path d="M58.178,207.506c0.006-0.062-0.028-0.07-0.118-0.04C58.15,207.436,58.184,207.444,58.178,207.506z"/>
        <path d="M162.192,213.7c0.968,10.642,9.489,12.088,13.975,1.729C183.39,194.4,159.395,194.937,162.192,213.7z"/>
        <path d="M183.589,175.47c-17.31-11.979-36.366,6.772-39.543,28.439c-8.778,38.985,27.297,65.584,46.848,26.335&#x9;&#x9;C198.234,211.007,198.953,189.726,183.589,175.47z M154.01,242.088c-0.326-0.367-0.435-0.596-0.029-0.986&#x9;&#x9;C154.343,241.616,154.603,241.76,154.01,242.088z M156.505,193.788c0,0,0.05,0.04,0.044,0.041&#x9;&#x9;C156.543,193.831,156.505,193.788,156.505,193.788z M162.456,241.569c-0.65-0.479-1.173-1.183-1.837-1.506&#x9;&#x9;c-0.004,0.003-0.006,0.004,0,0c-0.001-0.001-0.002-0.002-0.004-0.002c0.001,0.001,0.003,0.001,0.004,0.002&#x9;&#x9;c0.008-0.01,0.053-0.043,0.053-0.043s-0.044,0.04-0.053,0.043C161.505,240.516,163.518,240.41,162.456,241.569z M160.381,237.045&#x9;&#x9;c0.822-1.383,1.291-0.419,2.531,0.222C161.652,238.562,161.396,237.819,160.381,237.045z M180.623,218.458&#x9;&#x9;c-7.6,17.547-22.028,15.098-23.673-2.926C152.214,183.751,192.856,182.837,180.623,218.458z"/>
        <path d="M42.739,285.826c0.002,0.004,0.018,0,0.026,0.001c0.04-0.04,0.081-0.08,0.121-0.119&#x9;&#x9;C42.837,285.746,42.787,285.789,42.739,285.826z"/>
        <path d="M99.974,115.695L99.974,115.695c0.007,0.012,0.027,0.007,0.04,0.012c-0.003-0.004-0.005-0.007-0.008-0.011&#x9;&#x9;L99.974,115.695z"/>
        <path d="M76.297,233.419c-0.004,0.005-0.006,0.012-0.011,0.017C76.291,233.431,76.296,233.428,76.297,233.419z"/>
        <path d="M76.276,233.286c0.04-0.017,0.043,0.094,0.021,0.133c0.026-0.033,0.061-0.062,0.065-0.104L76.276,233.286z"/>
        <path d="M42.616,210.566c0.007-0.005,0.013-0.012,0.018-0.021c-0.003-0.005-0.006-0.01-0.009-0.015l-0.017,0.035&#x9;&#x9;C42.61,210.567,42.614,210.565,42.616,210.566z"/>
        <path d="M251.88,202.161c-1.83-0.02,8.85-8.92,8.375-8.471c0.148-0.605,1.609-1.919,1.096-1.396&#x9;&#x9;c1.391-1.42,8.733-6.848,8.055-7.418c0.196-1.81-8.747,4.147-9.414,3.47c-4.292,2.356-5.12,2.727-11.197,5.428&#x9;&#x9;c0.092,0.144,0.193,0.272,0.32,0.35l0.109-0.129c-0.016,0.026-0.055,0.102-0.1,0.136c0.007,0.004,0.012,0.012,0.019,0.016&#x9;&#x9;c-1.023,1-1.114,0.656-0.892-0.139c-4.623,1.703-8.672,4.367-13.64,6.718c-0.046,0.071-0.097,0.143-0.168,0.216&#x9;&#x9;c1.661,1.288,3.443,1.854,5.237,2.964c0.635,1.318,4.18,2.237,2.106,3.502c-6.069,5.678-13.584,12.093-19.748,17.463&#x9;&#x9;c-0.37,0.33,0.015,0.925,0.469,0.725c8.095-3.775,16.251-7.459,24.328-11.661c-0.22,0.402,9.917-5.584,13.538-7.256&#x9;&#x9;C261.293,206.397,254.179,204.076,251.88,202.161z M262.883,190.509c-0.56,0.311-1.052,0.643-1.23-0.031&#x9;&#x9;C262.005,189.676,262.271,189.887,262.883,190.509z M254.884,195.002c-0.349,1.617-0.628,0.93-0.906-0.21&#x9;&#x9;C254.211,193.475,254.608,194.015,254.884,195.002z M253.868,197.389c0,0-0.058-0.027-0.058-0.033&#x9;&#x9;C253.81,197.349,253.868,197.389,253.868,197.389z M253.81,197.349c-0.562,0.339-0.994,1.441-1.597,0.651&#x9;&#x9;C252.708,197.754,253.417,197.675,253.81,197.349z M251.787,194.366c0.45,0.117,0.589,0.431,0.201,0.673&#x9;&#x9;C251.541,195.019,251.459,194.7,251.787,194.366z M243.048,203.149C242.96,202.845,243.124,202.995,243.048,203.149&#x9;&#x9;c0.029-0.004,0.121-0.016,0.06-0.008C243.094,203.144,243.078,203.146,243.048,203.149z M246.77,204.44&#x9;&#x9;c0.316-0.376,0.538-0.369,0.852,0.011C247.393,205.076,247.108,204.758,246.77,204.44z M251.266,206.048&#x9;&#x9;c-0.382-0.023-0.232-0.44-0.194-0.736C251.543,205.534,251.724,205.689,251.266,206.048z M252.91,209.872&#x9;&#x9;c-0.065-0.135-0.151-0.422-0.269-0.523c-0.006,0.002-0.008,0.002,0,0c-0.001-0.001-0.002-0.003-0.003-0.004&#x9;&#x9;c0.013,0.005,0.081-0.023,0.082-0.02c0,0-0.061,0.021-0.075,0.023C252.742,209.354,253.28,210.234,252.91,209.872z&#x9;&#x9; M253.818,205.771c0.072-0.342,0.341-0.122,0.564,0.023C254.259,206.202,254.054,205.944,253.818,205.771z"/>
        <path d="M182.585,32.327c-1.226,2.995-3.35,5.973-5.492,9.562c2.836,0.246,4.851,0.943,7.684,0.85&#x9;&#x9;c5.051,1.105,6.011-0.735,4.204,5.123c0.198-0.004,0.433,0.064,0.739,0.253c-0.562,0.531-0.843,1.138-1.253,1.209&#x9;&#x9;c-2.167,9.908-5.269,19.886-7.741,29.206c-0.165,0.631,0.69,1.002,1.041,0.452c6.114-10.025,12.36-19.993,18.143-30.473&#x9;&#x9;c0.051,0.601,5.927-10.086,8.673-14.553c0.8-0.981-7.813-1.587-11.724-2.01c-1.526,0.756,0.011-3.114,0.344-4.549&#x9;&#x9;c1.311-5.899,1.526-8.303,2.658-10.819c-0.278-0.77,0.365-3.272,0.184-2.326c0.49-2.567,4.574-13.853,3.417-13.983&#x9;&#x9;c-0.936-2.311-6.656,11.004-7.78,10.651C191.426,19.006,190.623,20.019,182.585,32.327z M184.314,39.186&#x9;&#x9;c0.172-0.182,0.297-0.182,0.458,0.012C184.72,39.578,184.505,39.337,184.314,39.186z M188.068,41.442&#x9;&#x9;c-0.859-0.754-1.208-1.164,0.091-2.015C189.019,40.409,188.975,40.72,188.068,41.442z M183.211,72.834&#x9;&#x9;c0.126-0.268,0.215-0.567,0.476-0.224C183.554,72.834,183.387,73.155,183.211,72.834z M201.261,38.787l0.244,0.107&#x9;&#x9;C201.513,38.885,201.165,38.801,201.261,38.787z M201.237,38.799c0,0,0.024-0.012,0.024-0.012&#x9;&#x9;C201.08,38.961,201.025,39.011,201.237,38.799z M197.879,42.662c-0.373,0.345-0.543,0.358-0.631-0.165&#x9;&#x9;C197.422,42.164,197.669,42.493,197.879,42.662z M196.464,34.37c0.001,0.007-0.052-0.023-0.052-0.023S196.463,34.363,196.464,34.37&#x9;&#x9;z M188.781,52.129c0.462-1.203,1.131-0.575,2.044,0.373C189.804,53.594,189.389,53.055,188.781,52.129z M191.584,20.91l0.037,0.172&#x9;&#x9;C191.609,21.048,191.577,20.947,191.584,20.91z M193.069,53.529c0.048-0.263,0.198-0.565,0.2-0.811&#x9;&#x9;C193.242,53.012,193.386,53.367,193.069,53.529z M193.297,52.695l0.222,0.137C193.521,52.814,193.192,52.727,193.297,52.695z&#x9;&#x9; M195.625,13.982c0.108,0.223,0.169,0.421-0.15,0.43C195.356,14.203,195.435,14.094,195.625,13.982z M195.059,47.896l0.104-0.201&#x9;&#x9;C195.294,47.88,195.294,47.908,195.059,47.896z M194.542,31.648c0.003,0.005-0.076-0.014-0.076-0.014&#x9;&#x9;S194.539,31.643,194.542,31.648z M194.335,21.512c-0.011-0.102-0.023-0.205-0.039-0.346&#x9;&#x9;C194.505,21.32,194.508,21.385,194.335,21.512z M195.111,39.42C195.109,39.418,195.108,39.418,195.111,39.42&#x9;&#x9;c0.001-0.001,0.002-0.002,0.003-0.003C195.113,39.418,195.112,39.419,195.111,39.42c0.008,0.002,0.046,0.047,0.046,0.047&#x9;&#x9;S195.111,39.425,195.111,39.42c-0.329,0.343-0.597,1.383-1.016,0.716C194.391,39.881,194.949,39.731,195.111,39.42z&#x9;&#x9; M194.193,43.823c-1.211,0.619-1.733,1.711-2.501,0.267C192.682,43.28,192.969,42.464,194.193,43.823z"/>
        <path d="M230.406,171.381c4.124-12.22,8.267-23.348,13.758-36.516c2.73-5.406,0.714-12.742-4.889-16.235&#x9;&#x9;c-37.93-24.744-44.736-30.021-86.511-47.013c-0.004,0.125-0.005,0.25,0.003,0.372c-0.027-0.125-0.037-0.256-0.04-0.388&#x9;&#x9;c-0.064-0.027-0.129-0.058-0.192-0.085c0.065,0.148,0.13,0.299,0.199,0.467c-1.757-0.123,0.435,5.908-3.566,2.289l0.147-0.23&#x9;&#x9;c-0.01-0.004-0.074,0.174-0.115,0.23c0.63,0.063,0.835-2.132,1.213-3.555c-12.949-4.338-19.137,4.199-18.828,9.378&#x9;&#x9;c-2.659,43.997-4.021,71.693-6.464,119.892c0.324,5.608-6.837,5.984-5.057-0.201c-0.405-16.858-0.449-20.115-0.183-35.98&#x9;&#x9;c-0.427-3.31-0.218-83.87-5.555-87.091c-3.983-2.404-8.886-2.72-13.451-1.821c-28.864,8.049-51.091,17.938-83.681,32.325&#x9;&#x9;c-2.022,3.833-18.381-0.745-8.718,25.104c5.905,14.353,12.627,36.635,18.193,59.894c0.385-1.189,0.714-2.155,1.568-0.225&#x9;&#x9;c-0.391,0.632-0.813,1.631-1.183,1.851c7.74,32.437,11.726,61.409,13.829,94.058c-1.111-2.619,2.712,13.11,9.394,12.975&#x9;&#x9;c1.117,1.354,34.235,2.767,35.537,4.899c0.275-0.005,0.679,0.111,1.143,0.282c0.452-1.192,1.11-2.401,1.554-3.611&#x9;&#x9;c-0.004-0.006-0.005-0.008,0-0.001c0.001-0.002,0.001-0.003,0.002-0.005c-0.001,0.002-0.001,0.003-0.002,0.005&#x9;&#x9;c0.009,0.01,0.038,0.061,0.038,0.061s-0.035-0.05-0.039-0.06c-0.369,1.219-0.951,2.424-1.474,3.639&#x9;&#x9;c26.573,16.373,29.867,6.091,56.078,1.346c12.695-2.941,29.325-1.523,45.491,0.8c2.487,1.111,13.683-3.796,14.332-12.754&#x9;&#x9;C207.403,250.788,216.033,213.071,230.406,171.381z M227.335,128.15c-0.405-0.304-0.45-0.499-0.026-0.835&#x9;&#x9;C227.689,127.642,227.795,127.833,227.335,128.15z M227.198,125.006l0.199,0.101C227.218,125.247,227.2,125.227,227.198,125.006z&#x9;&#x9; M231.221,131.431l0.091,0.174C231.113,131.612,231.108,131.59,231.221,131.431z M226.282,117.543c0.001-0.001,0-0.004,0.001-0.006&#x9;&#x9;c1.002-0.765,1.929-1.703,3.051-2.189C233.461,116.523,225.611,123.89,226.282,117.543z M16.589,135.18&#x9;&#x9;c0.095-0.255,0.164-0.28,0.347-0.146C16.833,135.078,16.73,135.121,16.589,135.18z M18.882,135.96&#x9;&#x9;c0.301-0.368,0.623-0.2,0.736,0.275C19.221,136.517,18.861,136.436,18.882,135.96z M20.249,165.128&#x9;&#x9;c0.43,0.026,1.021,0.287,1.375,0.202c0.002,0,0.004,0,0.006,0c-0.002,0-0.003,0.001-0.005,0.001&#x9;&#x9;c0.008,0.004,0.044,0.058,0.044,0.058s-0.046-0.055-0.044-0.058C21.031,165.422,20.36,166.081,20.249,165.128z M21.482,149.399&#x9;&#x9;c-0.005-0.473,0.228-0.649,0.6-0.298C22.006,149.566,21.767,149.809,21.482,149.399z M23.001,145.327&#x9;&#x9;c0.182-0.134,0.309,0,0.285,0.228C23.071,145.642,22.929,145.547,23.001,145.327z M25.204,176.99&#x9;&#x9;c-0.383-0.049-0.172-0.429-0.101-0.711C25.547,176.519,25.644,176.686,25.204,176.99z M25.733,130.518l-0.012-0.016&#x9;&#x9;c-0.034,0.041-0.103,0.079-0.129,0.095l0.123-0.103l-0.122-0.153c0.018,0.022,0.126,0.079,0.147,0.132l0.01-0.009&#x9;&#x9;C25.732,130.478,25.751,130.5,25.733,130.518z M220.297,108.877c1.018,1.013,2.705,1.96,0.957,2.714&#x9;&#x9;C219.955,110.637,218.045,110.076,220.297,108.877z M221.747,125.623c0,0-0.051-0.054-0.046-0.054&#x9;&#x9;C221.707,125.569,221.747,125.623,221.747,125.623z M220.848,182.403c-0.007-0.026-0.017-0.078-0.023-0.127&#x9;&#x9;c-0.005,0.003-0.007,0.004-0.011,0.007c0,0,0.011-0.082,0.01-0.082c0.346-0.147,0.253-0.076,0.009,0.071L220.848,182.403z&#x9;&#x9; M219.047,107.17c0.001,0.006-0.063-0.033-0.063-0.033S219.047,107.164,219.047,107.17z M220.666,176.957&#x9;&#x9;c-0.821,0.64-1.351,1.184-1.918,0.404C219.033,176.089,219.49,176.398,220.666,176.957z M217.284,111.136l-0.085-0.189&#x9;&#x9;C217.402,110.952,217.406,110.979,217.284,111.136z M215.637,111.811c-0.001,0.008-0.059,0.042-0.059,0.042&#x9;&#x9;S215.639,111.804,215.637,111.811z M210.684,121.488c-0.365,0.798-0.575,0.423-1.103,0.136&#x9;&#x9;C209.827,120.935,210.172,121.281,210.684,121.488z M208.975,117.415c-1.403,0.699-3.328,3.206-3.538,0.897&#x9;&#x9;C206.638,116.638,207.174,115.268,208.975,117.415z M209.299,123.804c-0.506,0.714-0.735,0.89-1.18,0.157&#x9;&#x9;C208.201,123.252,208.712,123.565,209.299,123.804z M204.811,129.53c-0.32,0.616-0.508,0.253-0.757-0.152&#x9;&#x9;C204.422,129.027,204.613,129.023,204.811,129.53z M205.667,134.63c-1.056,0.364-1.443,1.049-1.86-0.076&#x9;&#x9;C204.564,133.978,204.692,133.998,205.667,134.63z M198.146,140.905l0.143-0.056c-0.026,0.018-0.083,0.05-0.135,0.065&#x9;&#x9;c0.005,0.006,0.009,0.009,0.014,0.015c0,0-0.075-0.003-0.075-0.003C197.965,140.711,198.035,140.779,198.146,140.905z&#x9;&#x9; M195.178,120.491c-0.093,0.247-0.207,0.278-0.425,0.136C194.89,120.405,195.025,120.111,195.178,120.491z M185.449,124.718&#x9;&#x9;l0.13,0.158C185.373,124.942,185.384,124.9,185.449,124.718z M185.004,114.502c-0.179,0.419-0.471,0.825-0.592,1.263&#x9;&#x9;C184.614,115.336,184.452,114.247,185.004,114.502z M184.736,121.666c-0.113-0.199-0.082-0.31,0.131-0.4&#x9;&#x9;C185.189,121.416,184.926,121.539,184.736,121.666z M183.683,118.786c-0.156,0.22-0.332,0.512-0.564,0.227&#x9;&#x9;C182.918,118.456,183.275,118.653,183.683,118.786z M181.32,119.363l-0.228-0.034C181.226,119.15,181.256,119.139,181.32,119.363z&#x9;&#x9; M180.885,121.988c0.565,0.406,0.225,0.607-0.22,0.853C180.368,122.422,180.374,122.19,180.885,121.988z M178.909,118.957&#x9;&#x9;c0.138,0.185,0.1,0.289-0.097,0.396C178.711,119.152,178.574,118.933,178.909,118.957z M173.24,123.926&#x9;&#x9;c-0.109,0.185-0.215,0.207-0.388,0.079C172.958,123.814,173.066,123.801,173.24,123.926z M171.905,112.159&#x9;&#x9;c-0.313,0.403-0.498,0.545-0.694,0.002C171.31,111.793,171.649,112.04,171.905,112.159z M166.53,78.488&#x9;&#x9;c0.208,0.099,0.274,0.202,0.144,0.411C166.334,78.935,166.438,78.708,166.53,78.488z M162.618,116.424l-0.016-0.247&#x9;&#x9;C162.84,116.266,162.818,116.297,162.618,116.424z M162.27,107.4c-0.002,0.459-0.291,0.287-0.6,0.186&#x9;&#x9;C161.627,107.164,161.989,107.355,162.27,107.4z M153.898,110.135c0.551,1.032,0.814,1.35,0.861,1.698&#x9;&#x9;C153.836,113.014,152.953,111.339,153.898,110.135z M155.855,116.002c-1.343,0.618-1.565,1.172-1.653,0.041&#x9;&#x9;C154.597,115.408,154.971,115.802,155.855,116.002z M152.159,118.769c0.332,0.046,0.213,0.421,0.186,0.699&#x9;&#x9;C151.914,119.262,151.773,119.114,152.159,118.769z M150.466,130.988c11.024-27.044,32.028,1.828,14.033,16.54&#x9;&#x9;c0.988-1.112-2.938,2.182-2.871,1.251c-8.478,4.173-14.262-10.247-12.159-15.101C150.393,133.555,149.554,132.045,150.466,130.988z&#x9;&#x9; M160.015,161.371c0,0,0.032-0.057,0.037-0.056C160.057,161.316,160.015,161.371,160.015,161.371z M149.557,116.795&#x9;&#x9;c-1.916,0.702-2.193,0.436-3.191-0.877C147.842,115.544,148.272,115.482,149.557,116.795z M148.354,137.657&#x9;&#x9;c-1.901,1.881-1.644,1.111-2.738-0.192C146.178,136.135,147.196,137.132,148.354,137.657z M142.762,74.738&#x9;&#x9;c-0.002,0.008-0.061,0.037-0.061,0.037S142.764,74.73,142.762,74.738z M141.356,120.156c0.484,0.199,0.483,0.434,0.273,0.858&#x9;&#x9;C141.136,120.841,141.173,120.596,141.356,120.156z M141.506,167.505c-0.313-0.127-0.069-0.264,0.102-0.401&#x9;&#x9;C141.725,167.29,141.702,167.401,141.506,167.505z M139.116,165.019c-0.208,0.223-0.275,0.263-0.44,0.021&#x9;&#x9;C138.808,165.034,138.94,165.028,139.116,165.019z M137.281,74.518c0.154,0.23,0.419,0.533,0.032,0.573&#x9;&#x9;C137.144,74.86,136.872,74.628,137.281,74.518z M132.26,264.663c0.023,0.177,0.01,0.2-0.149,0.104&#x9;&#x9;C132.11,264.767,132.26,264.663,132.26,264.663z M128.361,279.289c0,0-0.048-0.046-0.04-0.046&#x9;&#x9;C128.329,279.244,128.361,279.289,128.361,279.289z M127.746,196.133c0.238,0.066,0.29,0.223,0.284,0.454&#x9;&#x9;C127.764,196.499,127.575,196.454,127.746,196.133z M123.146,280.349c-0.3,0.179-0.274-0.097-0.28-0.329&#x9;&#x9;C123.093,280.035,123.181,280.116,123.146,280.349z M123.2,283.04c-0.098,0.087-0.196,0.174-0.332,0.296&#x9;&#x9;C122.878,283.015,122.93,282.943,123.2,283.04z M121.365,215.451c-0.294,0.637-0.705,0.778-0.784,0.006&#x9;&#x9;C120.878,214.951,121.265,214.552,121.365,215.451z M119.26,201.753c0.124,0.19,0.086,0.306-0.104,0.421&#x9;&#x9;C119.053,201.969,118.932,201.756,119.26,201.753z M119.391,214.9c-0.338,0.619-0.541,0.306-0.804-0.133&#x9;&#x9;C118.961,214.432,119.171,214.357,119.391,214.9z M117.294,123.45c0.32-0.178,0.337,0.212,0.436,0.477&#x9;&#x9;C117.247,123.977,117.079,123.921,117.294,123.45z M118.413,225.943c-0.594,0.057-0.998,0.191-1.408-0.25&#x9;&#x9;C117.584,225.624,118.041,225.271,118.413,225.943z M117.669,276.708C117.536,277.064,117.487,276.795,117.669,276.708&#x9;&#x9;C117.511,276.616,117.59,276.662,117.669,276.708z M117.515,230.345c-0.02,0.02-0.036,0.025-0.051,0.023&#x9;&#x9;c-0.006,0.003-0.017,0.008-0.017,0.008s0.01-0.006,0.015-0.009c-0.041-0.008-0.067-0.079-0.093-0.114l0.14,0.088&#x9;&#x9;c0.008-0.004,0.009-0.004,0.001,0.001L117.515,230.345z M116.869,222.281c-0.037,0.348-0.228,0.136-0.399-0.007&#x9;&#x9;C116.619,222.103,116.726,222.105,116.869,222.281z M115.636,149.456c0.002,0.004-0.048,0.05-0.048,0.05L115.636,149.456z&#x9;&#x9; M114.027,276.122c-0.912-0.969-2.063-1.792-0.471-2.13C114.391,274.688,115.376,275.138,114.027,276.122z M112.899,129.994&#x9;&#x9;c0.985,0.725,0.897,0.906,0.747,2.402C112.622,131.23,112.327,131.153,112.899,129.994z M112.969,101.759&#x9;&#x9;c0.315,0.868,1.487,1.611,0.764,2.166C113.222,103.112,111.855,102.73,112.969,101.759z M112.066,232.15&#x9;&#x9;c0.331,0.156,0.058,0.473-0.075,0.733C111.634,232.532,111.571,232.347,112.066,232.15z M111.683,134.655L111.683,134.655&#x9;&#x9;C111.683,134.655,111.684,134.655,111.683,134.655C111.684,134.655,111.683,134.655,111.683,134.655&#x9;&#x9;c0.002-0.002,0.056,0.065,0.056,0.065L111.683,134.655c-0.017,0.343-0.593,0.663-0.814,0.996h0c0,0,0,0,0,0v0&#x9;&#x9;c-0.18,0.147-0.195,0.127-0.052-0.054c0,0,0.051,0.053,0.052,0.053C110.934,135.284,111.459,134.991,111.683,134.655&#x9;&#x9;L111.683,134.655z M111.044,123.901c-0.815-0.057-1.685-0.404-2.441-0.518C109.944,123.18,112.336,121.79,111.044,123.901z&#x9;&#x9; M110.397,273.937c0,0,0.026-0.056,0.032-0.056C110.435,273.88,110.397,273.937,110.397,273.937z M108.7,132.246&#x9;&#x9;c-1.502-0.721-0.82-1.722,0.512-2.591C110.509,131.091,110.353,131.892,108.7,132.246z M108.753,122.087&#x9;&#x9;c-0.054,0.422-0.083,0.839-0.15,1.27C108.638,122.921,108.072,121.958,108.753,122.087z M108.296,112.929&#x9;&#x9;c0.555-0.176,0.062,0.711-0.143,0.261C108.144,113.108,108.243,113.015,108.296,112.929z M107.8,126.96&#x9;&#x9;c0.278,0.143,0.602,0.219,0.282,0.533C107.861,127.336,107.492,127.219,107.8,126.96z M107.944,282.555&#x9;&#x9;c-0.206,0.179-0.452,0.461-0.575,0.115C107.58,282.454,107.749,282.163,107.944,282.555z M107.089,106.617&#x9;&#x9;c-0.75,0.949-1.287,1.426-1.743,0.368C105.644,105.996,106.16,105.827,107.089,106.617z M105.809,180.789l0.037-0.252&#x9;&#x9;C106.056,180.683,106.055,180.712,105.809,180.789z M104.889,118.894c-0.169,0.185-0.286,0.183-0.438-0.018&#x9;&#x9;C104.65,118.737,104.883,118.502,104.889,118.894z M104.538,253.6l-0.164-0.158C104.405,253.466,104.561,253.538,104.538,253.6z&#x9;&#x9; M103.581,146.263c0,0-0.149,0.109-0.149,0.109C103.408,146.196,103.417,146.168,103.581,146.263z M102.277,113.894&#x9;&#x9;c0.244-0.601,0.725-0.307,1.303,0.013C102.899,114.509,102.643,114.721,102.277,113.894z M101.497,150.267&#x9;&#x9;c0.659,1.932,2.34,3.3,1.828,5.008C102.393,153.387,98.441,151.844,101.497,150.267z M103.096,243.605&#x9;&#x9;c-0.031-0.26-0.234-0.527,0.153-0.585C103.28,243.273,103.467,243.556,103.096,243.605z M102.774,220.216&#x9;&#x9;c-0.053,0.189-0.069,0.215-0.192,0.044L102.774,220.216z M102.225,267.475l-0.014-0.214&#x9;&#x9;C102.417,267.338,102.401,267.364,102.225,267.475z M100.041,115.741c0,0-0.067-0.047-0.067-0.046c0,0,0,0,0-0.001h0&#x9;&#x9;c0.001-0.016-0.001-0.025-0.001-0.04c-0.641-0.762,0.058-1.115,0,0c0.012,0.014,0.019,0.027,0.033,0.042l0.191,0.009&#x9;&#x9;c-0.041,0.009-0.128,0.025-0.183,0.002C100.025,115.719,100.029,115.729,100.041,115.741z M100.172,109.161&#x9;&#x9;c0.451,0.813,1.293,1.738,0.045,1.743C99.524,110.204,98.953,109.731,100.172,109.161z M100.947,122.073&#x9;&#x9;c0.337,0.347,0.597,0.671-0.065,0.754C100.513,122.541,100.542,122.292,100.947,122.073z M101.621,107.785&#x9;&#x9;c0,0-0.016,0.075-0.02,0.079C101.598,107.869,101.621,107.785,101.621,107.785z M102.682,132.595&#x9;&#x9;c0.152-0.171,0.278-0.2,0.455-0.041C103.083,132.89,102.878,132.728,102.682,132.595z M102.287,95.868l0.157,0.155&#x9;&#x9;C102.232,96.099,102.217,96.079,102.287,95.868z M101.59,83.874c0,0-0.005,0.002-0.006,0.003c0.001,0.001,0.002,0.002,0.004,0.003&#x9;&#x9;c0,0-0.079,0.029-0.079,0.029c0,0,0,0,0,0h0h0c-0.435-0.423-0.337-0.367,0.075-0.032C101.584,83.876,101.59,83.873,101.59,83.874z&#x9;&#x9; M100.585,88.442c1.859,2.032,1.787,2.434-0.343,3.569C98.621,91.238,99.952,90.042,100.585,88.442z M100.073,99.991&#x9;&#x9;c-0.389,2.519,1.385,4.525,2.671,6.484l0.159-0.066c-0.028,0.02-0.094,0.064-0.151,0.077c0.005,0.007,0.01,0.014,0.015,0.021&#x9;&#x9;c-0.007-0.007-0.015-0.013-0.022-0.02c-0.017,0.003-0.037,0.017-0.05,0.009l0.04-0.017&#x9;&#x9;C100.607,104.498,97.859,103.228,100.073,99.991z M99.331,144.21l-0.096-0.178C99.441,144.023,99.451,144.043,99.331,144.21z&#x9;&#x9; M100.031,218.101c-1.565,1.675-1.985-0.14-2.869-1.285C97.856,214.691,98.912,217.011,100.031,218.101z M98.143,272.882&#x9;&#x9;c-0.278-0.105-0.335-0.17-0.166-0.384C98.025,272.61,98.074,272.723,98.143,272.882z M96.595,113.621&#x9;&#x9;c-0.049,0.222-0.215,0.301-0.353,0.124C96.237,113.522,96.417,113.479,96.595,113.621z M95.984,87.356&#x9;&#x9;c-0.342,1.013-0.71,0.758-1.194,0.026C94.976,86.755,95.491,86.707,95.984,87.356z M95.762,262.578l-0.012-0.209&#x9;&#x9;C95.948,262.446,95.937,262.472,95.762,262.578z M94.508,114.995c0,0,0.143,0.193,0.143,0.193&#x9;&#x9;C94.422,115.22,94.386,115.21,94.508,114.995z M93.997,154.156c0.237,0.139,0.65,0.243,0.416,0.538&#x9;&#x9;C93.9,154.8,93.839,154.636,93.997,154.156z M94.263,215.351c-0.264,0.11-0.476,0.407-0.619-0.009&#x9;&#x9;C93.917,215.222,94.106,214.9,94.263,215.351z M92.806,112.042c0.765,0.404,0.787,0.668,0.313,1.302&#x9;&#x9;C92.386,113.026,92.093,112.795,92.806,112.042z M89.822,186.905l-0.268-0.051C89.712,186.673,89.755,186.662,89.822,186.905z&#x9;&#x9; M89.624,190.274c-0.075,0.176-0.096,0.172-0.183,0.005C89.441,190.28,89.624,190.274,89.624,190.274z M87.855,88.28L87.855,88.28&#x9;&#x9;L87.855,88.28L87.855,88.28L87.855,88.28l0.056,0.065C87.911,88.345,87.853,88.283,87.855,88.28&#x9;&#x9;c-0.021,0.354-0.611,0.697-0.839,1.045C87.054,88.961,87.627,88.628,87.855,88.28z M88.244,211.582&#x9;&#x9;c-1.157,1.156-1.887-0.109-3.44-0.694C86.396,209.206,86.864,210.824,88.244,211.582z M86.822,216.907&#x9;&#x9;c-0.383-0.052-0.125-0.382-0.031-0.63C87.233,216.516,87.285,216.671,86.822,216.907z M86.45,234.306&#x9;&#x9;C86.454,234.302,86.455,234.302,86.45,234.306c0.002,0.001,0.003,0.002,0.005,0.003c0,0-0.047,0.039-0.047,0.039c0,0,0,0,0,0l0,0&#x9;&#x9;l0,0C85.695,233.896,85.739,233.9,86.45,234.306z M85.38,236.074c-0.201,0.183-0.232,0.15-0.269-0.107L85.38,236.074z&#x9;&#x9; M84.289,186.528c0,0-0.019,0.054-0.026,0.055C84.256,186.584,84.289,186.528,84.289,186.528z M83.638,180.378&#x9;&#x9;c-1.415-0.311-2.172-0.888-0.298-1.329C85.46,179.549,85.94,179.996,83.638,180.378z M82.901,222.783&#x9;&#x9;c-0.816-1.894-0.76-1.864-0.012-3.238C83.714,220.722,83.235,220.878,82.901,222.783z M82.307,237.836&#x9;&#x9;c-0.036-0.005-0.04,0.076-0.065,0.135c-0.007-0.039-0.02-0.085-0.037-0.133C82.247,237.81,82.3,237.804,82.307,237.836z&#x9;&#x9; M84.352,128.249c-0.002,0-0.164,0.013-0.166,0.014c0,0,0,0,0,0l0,0l0,0c-0.186-0.228-0.081-0.151,0.082-0.015&#x9;&#x9;C84.302,128.243,84.335,128.242,84.352,128.249z M83.078,96.688c-0.304,0.386-0.626,0.354-0.75-0.103&#x9;&#x9;C82.504,96.136,82.85,96.261,83.078,96.688z M85.764,132.645c-1.827,1.744-3.216-1.895-4.8-2.839&#x9;&#x9;C81.646,127.493,84.117,131.694,85.764,132.645z M82.13,237.674l-0.003,0.001c-0.015-0.029-0.029-0.053-0.037-0.069&#x9;&#x9;C82.098,237.62,82.11,237.64,82.13,237.674z M81.891,216.972c0,0,0.028-0.06,0.034-0.061&#x9;&#x9;C81.93,216.911,81.891,216.972,81.891,216.972z M81.711,226.416c-0.717-0.343-1.017-0.715-0.34-1.095&#x9;&#x9;C82.088,225.425,82.214,225.798,81.711,226.416z M81.004,200.427c0,0-0.185-0.044-0.185-0.044&#x9;&#x9;C80.941,200.237,80.965,200.238,81.004,200.427z M80.638,213.73c0.442,0.095,0.171,0.384,0.113,0.677&#x9;&#x9;C80.331,214.311,80.571,214.015,80.638,213.73z M79.63,139.272c0.097-0.157,0.198-0.301,0.309-0.407&#x9;&#x9;c-0.004-0.007-0.004-0.008,0.001-0.001c0.001-0.001,0.002-0.003,0.003-0.004c-0.001,0.001-0.002,0.003-0.003,0.004&#x9;&#x9;c0.01,0.011,0.035,0.059,0.035,0.059s-0.032-0.048-0.035-0.058c-0.739,0.753-1.123,2.957-2.111,2.336&#x9;&#x9;C78.397,140.519,79.095,139.935,79.63,139.272z M78.611,228.203c-0.223-0.012-0.491,0.003-0.29-0.274&#x9;&#x9;C78.545,227.901,78.615,227.984,78.611,228.203z M78.498,170c-0.005,0.023,0.207,0.214,0.05,0.137L78.498,170z M79.018,189.562&#x9;&#x9;c0.308,0.461,0.195,0.63-0.314,0.798C78.413,189.889,78.534,189.722,79.018,189.562z M78.61,170.158&#x9;&#x9;c-0.418-1.27-0.835-2.54-1.253-3.809C79.052,166.504,78.038,169.03,78.61,170.158z M76.481,191.117&#x9;&#x9;c0.493,0.365,0.343,0.659,0.058,1.094C76.234,191.833,76.2,191.537,76.481,191.117z M75.987,210.286c0,0-0.039,0.058-0.039,0.058&#x9;&#x9;c0,0,0,0,0,0l0,0C75.698,210.207,75.738,210.2,75.987,210.286z M75.792,186.734c-0.196-0.076-0.182-0.101-0.012-0.206&#x9;&#x9;L75.792,186.734z M75.722,233.301l-0.073,0.176c-0.032-0.025-0.057-0.073-0.065-0.121&#x9;&#x9;C75.631,233.339,75.675,233.317,75.722,233.301z M75.349,223.299c0.091-0.277,0.238-0.214,0.316,0.038&#x9;&#x9;C75.535,223.571,75.381,223.583,75.349,223.299z M74.967,128.252c0.377-0.376,0.591-0.309,0.798,0.248&#x9;&#x9;C75.278,128.664,74.711,128.958,74.967,128.252z M74.897,233.682c0.009,0.035,0.009,0.08-0.015,0.145l-0.104-0.08&#x9;&#x9;C74.818,233.724,74.858,233.705,74.897,233.682z M73.891,152.139c0.11,0.157,0.003,0.267-0.19,0.245&#x9;&#x9;C73.631,152.204,73.711,152.075,73.891,152.139z M72.65,236.05c0.039,0.031,0.066,0.072,0.055,0.143&#x9;&#x9;c-0.032-0.013-0.074-0.032-0.108-0.055C72.613,236.108,72.633,236.08,72.65,236.05z M67.122,147.08&#x9;&#x9;c-0.197,0.188-0.252,0.221-0.383,0C66.852,147.08,66.965,147.08,67.122,147.08z M62.82,146.488&#x9;&#x9;c-0.355,0.438-0.558,0.44-0.866-0.028C62.292,146.015,62.494,146.036,62.82,146.488z M61.05,111.762&#x9;&#x9;c-1.454-0.428-0.515-1.177,0.106-2.52C62.071,111.022,62.333,111.108,61.05,111.762z M61.108,163.355&#x9;&#x9;c-1.261,0.538-2.036,1.179-2.697,0.149C59.292,162.048,59.043,162,61.108,163.355z M62.556,165.461&#x9;&#x9;c-0.002,0-0.004-0.001-0.006-0.001c-0.011,0.013-0.042,0.04-0.042,0.04s0.029-0.031,0.041-0.04c-0.53-0.01-1.066-0.302-1.598-0.408&#x9;&#x9;c0.484,0.134,1.008,0.255,1.599,0.408c0.008-0.008,0.01-0.008,0.001,0C62.553,165.46,62.555,165.461,62.556,165.461z&#x9;&#x9; M59.167,175.206c-0.168-0.121-0.336-0.242-0.504-0.363c0.337-0.053,0.413,0.37,0.68,0.49c0.002-0.002,0.002-0.002,0,0&#x9;&#x9;c0.001,0.001,0.002,0.002,0.004,0.003c-0.001,0-0.002-0.002-0.004-0.002c-0.002,0.007-0.034,0.038-0.034,0.038&#x9;&#x9;s0.029-0.038,0.034-0.038C59.278,175.328,59.222,175.274,59.167,175.206z M58.94,150.085c-0.791-0.464-1.668-0.979-2.545-1.494&#x9;&#x9;C57.951,147.402,62.886,149.444,58.94,150.085z M56.235,151.825c-0.013,0.249-0.031,0.281-0.231,0.11L56.235,151.825z&#x9;&#x9; M56.043,145.464c0.331-0.372,0.549-0.419,0.847,0.027C56.628,146.105,56.368,145.829,56.043,145.464z M57.754,178.065&#x9;&#x9;c-0.87,0.371-1.569,0.632-1.718-0.316C56.667,176.609,56.957,176.987,57.754,178.065z M56.424,161.117&#x9;&#x9;c0.184-0.122,0.209-0.116,0.193,0.109L56.424,161.117z M56.737,113.637c1.037-1.693,2.591,2.197,3.885,3.159&#x9;&#x9;C58.756,117.42,57.977,114.686,56.737,113.637z M60.395,99.324c-0.216,0.186-0.465,0.519-0.637,0.143&#x9;&#x9;C59.794,98.853,59.97,98.935,60.395,99.324z M59.344,105.265c-0.402,0.727-0.721,0.326-1.002-0.204&#x9;&#x9;C58.572,104.347,59.044,104.67,59.344,105.265z M59.926,107.243c1.982,0.673-2.054,2.633-2.875,3.815&#x9;&#x9;C53.517,109.353,58.447,108.576,59.926,107.243z M59.823,186.623c-2.222,1.036-3.075,2.884-4.551,0.601&#x9;&#x9;C56.727,185.303,57.408,185.587,59.823,186.623z M53.438,116.934c0.142,0.234,0.158,0.299-0.093,0.371&#x9;&#x9;C53.372,117.193,53.4,117.083,53.438,116.934z M49.782,170.299c-0.212,0.103-0.382,0.028-0.312-0.198&#x9;&#x9;C49.659,169.95,49.795,170.061,49.782,170.299z M49.667,116.701c-0.375,0.377-0.549,0.277-0.798-0.129&#x9;&#x9;C49.232,116.193,49.409,116.265,49.667,116.701z M47.037,171.388c-0.129-0.258-0.42-0.515,0.025-0.636&#x9;&#x9;C47.167,171.027,47.475,171.255,47.037,171.388z M46.998,110.831l-0.192,0.015C46.869,110.662,46.897,110.68,46.998,110.831z&#x9;&#x9; M45.583,175.07c1.031,0.43,0.528,0.965-0.359,1.681C44.385,175.832,44.52,175.398,45.583,175.07z M44.149,260.675&#x9;&#x9;c-0.112,0.139-0.139,0.155-0.183-0.032L44.149,260.675z M42.238,265.594c-0.487-1.279-0.215-1.239,0.859-2.626&#x9;&#x9;C43.037,264.642,43.137,264.694,42.238,265.594z M42.79,279.775c-0.157,0.202-0.277,0.211-0.451,0.02&#x9;&#x9;C42.359,279.402,42.587,279.628,42.79,279.775z M42.683,210.414c-0.007,0.025-0.022,0.089-0.048,0.131&#x9;&#x9;c0.004,0.007,0.009,0.015,0.013,0.021c-0.015,0.009-0.022,0.002-0.031,0c-0.008,0.005-0.01,0.023-0.019,0.022l0.011-0.022&#x9;&#x9;c-0.15-0.348-0.22-0.512,0.017-0.035L42.683,210.414z M42.485,107.872c0.099,0.215,0.049,0.288-0.184,0.299&#x9;&#x9;C42.203,107.957,42.252,107.883,42.485,107.872z M43.013,259.037c-1.149,0.62-1.58,0.759-1.571-0.524&#x9;&#x9;C42.046,257.489,42.398,258.297,43.013,259.037z M41.469,179.825c0.01,0.01,0.15-0.361,0.156-0.257L41.469,179.825z&#x9;&#x9; M36.519,166.248c-0.069,0.224-0.128,0.142-0.253,0.012C36.266,166.26,36.519,166.248,36.519,166.248z M36.072,162.997&#x9;&#x9;c-0.243,0.093-0.327,0.031-0.34-0.226C35.975,162.679,36.058,162.743,36.072,162.997z M28.2,121.932&#x9;&#x9;c0.165-0.129,0.283-0.112,0.418,0.046C28.432,122.089,28.225,122.258,28.2,121.932z M30.248,160.745&#x9;&#x9;c-1.055,0.67-1.283,0.291-2.001-0.381C29.092,159.51,29.386,159.996,30.248,160.745z M28.362,177.756&#x9;&#x9;c0.178-0.162,0.375-0.409,0.438-0.034C28.656,177.915,28.536,177.921,28.362,177.756z M29.232,187.581&#x9;&#x9;c-1.03-0.303-0.588-0.841,0.059-1.238C30.421,186.446,30.085,186.993,29.232,187.581z M30.152,196.578l0.168,0.096&#x9;&#x9;C30.159,196.782,30.137,196.773,30.152,196.578z M31.086,204.05C31.086,204.05,31.086,204.049,31.086,204.05&#x9;&#x9;C31.086,204.049,31.086,204.05,31.086,204.05c0-0.002,0-0.01,0-0.01c0,0,0,0,0.001,0c0.225-0.843,0.221-0.829,0.002,0&#x9;&#x9;C31.946,204.085,31.946,204.088,31.086,204.05z M32.965,192.197c0.121-0.581,0.38-0.449,0.554,0.033&#x9;&#x9;C33.322,192.718,33.06,192.748,32.965,192.197z M36.367,168.327c-0.688,1.17-1.376,2.34-2.064,3.509&#x9;&#x9;C34.863,170.583,35.153,169.03,36.367,168.327z M36.077,211.554c-0.159-0.242-0.383-0.513,0.064-0.473&#x9;&#x9;C36.276,211.322,36.482,211.661,36.077,211.554z M36.389,178.935c-0.462-0.328-0.426-0.528,0.014-0.866&#x9;&#x9;C36.865,178.44,36.864,178.621,36.389,178.935z M36.676,168.41c-0.099-0.03-0.199-0.056-0.295-0.093&#x9;&#x9;c0.381,0.119,0.773,0.23,1.156,0.347C37.251,168.654,36.963,168.518,36.676,168.41z M38.291,184.547l0.166-0.166&#x9;&#x9;C38.537,184.605,38.514,184.62,38.291,184.547z M38.728,128.17c-0.507-0.221-0.581-0.415-0.242-0.852&#x9;&#x9;C38.985,127.522,39.06,127.717,38.728,128.17z M39.61,182.65c-0.144-0.18-0.1-0.361,0.126-0.355&#x9;&#x9;C39.914,182.432,39.835,182.601,39.61,182.65z M39.776,227.275c0.212,0.075,0.221,0.102,0.031,0.229L39.776,227.275z&#x9;&#x9; M39.889,247.277l0.128,0.132C39.977,247.392,39.877,247.336,39.889,247.277z M40.31,99.951c-0.091-0.224-0.069-0.318,0.196-0.323&#x9;&#x9;C40.595,99.851,40.57,99.946,40.31,99.951z M40.786,179.245c0.275,0.081,0.554,0.26,0.828,0.295&#x9;&#x9;C41.263,179.51,40.539,179.818,40.786,179.245z M41.592,289.514c-0.669-0.657-1.017-0.965,0.061-1.658&#x9;&#x9;C42.108,288.617,42.646,289.29,41.592,289.514z M43.883,294.932c-0.209,0.053-0.254-0.109-0.149-0.291&#x9;&#x9;C43.952,294.642,44.031,294.768,43.883,294.932z M44.067,285.221c0.001-0.086,0.03-0.175,0.058-0.264&#x9;&#x9;c-0.195,0.226-0.414,0.428-0.674,0.588c0.275-0.14,0.529-0.289,0.547-0.347c-0.353,0.703-0.659,1.768-1.233,0.671&#x9;&#x9;c-0.029,0.01-0.052,0.027-0.082,0.037c0.022-0.021,0.043-0.043,0.065-0.064c-0.004-0.007-0.007-0.009-0.01-0.016c0,0,0,0,0,0&#x9;&#x9;c-0.84-2.31-1.325-3.607,1.818-3.896c0.356,1.051,0.034,1.916-0.505,2.625c0.224-0.251,0.544-0.442,0.646-0.773&#x9;&#x9;c0,0.057-0.023,0.113-0.035,0.169c0.029-0.029,0.058-0.057,0.087-0.086C44.578,284.343,44.253,284.764,44.067,285.221z&#x9;&#x9; M44.321,208.955c0.626-0.676,0.754-0.363,1.427,0.296C44.957,209.374,44.693,209.595,44.321,208.955z M45.198,278.37&#x9;&#x9;c0,0-0.077-0.17-0.077-0.17C45.307,278.209,45.327,278.225,45.198,278.37z M45.806,291.65c-0.172-0.113-0.192-0.266,0.006-0.322&#x9;&#x9;C46.006,291.395,45.983,291.558,45.806,291.65z M45.483,287.029c0.157-0.482,0.325-0.445,0.65-0.086&#x9;&#x9;C45.903,287.074,45.616,287.365,45.483,287.029z M45.307,178.969c0.515,0.737,0.809,1.88,1.314,2.387&#x9;&#x9;C46.011,180.49,43.596,179.29,45.307,178.969z M46.563,185.878c0.001-0.01-0.034-0.036-0.034-0.038c0,0,0.023,0.019,0.032,0.029&#x9;&#x9;c0.015-0.058,0.574-0.475,0.215-0.131c-0.048,0.035-0.172,0.078-0.209,0.136c0.002,0.003,0.003,0.003,0,0&#x9;&#x9;C46.566,185.876,46.564,185.877,46.563,185.878z M46.882,247.438c-0.39-0.122-0.164-0.322,0.004-0.556&#x9;&#x9;C47.251,246.96,46.997,247.214,46.882,247.438z M46.563,181.423c1.462-0.337,3.116-1.268,2.459,0.856&#x9;&#x9;C48.176,182.035,47.37,181.483,46.563,181.423z M49.169,246.637c-0.004,0.009-0.008,0.017-0.012,0.025&#x9;&#x9;c0.003-0.01,0.007-0.019,0.01-0.029c-0.006-0.013-0.024-0.024-0.02-0.037l0.024,0.026c0.149-0.542,0.476-1.044,0.687-1.571&#x9;&#x9;c-0.151,0.55-0.464,1.048-0.684,1.575l0.112,0.119C49.258,246.728,49.195,246.684,49.169,246.637z M51.016,245.359&#x9;&#x9;c-0.378-0.068-0.783-0.278-1.161-0.241C50.215,245.15,51.182,244.836,51.016,245.359z M51.095,171.72l0.164,0.173&#x9;&#x9;C51.228,171.867,51.067,171.785,51.095,171.72z M51.262,111.024c-0.089-0.211-0.044-0.305,0.183-0.349&#x9;&#x9;C51.754,110.861,51.471,110.935,51.262,111.024z M51.609,166.697c0.008-0.456,0.313-0.221,0.604-0.197&#x9;&#x9;C52.19,166.98,51.91,166.733,51.609,166.697z M52.4,274.079c0.108-0.144,0.135-0.156,0.185,0.028&#x9;&#x9;C52.585,274.107,52.4,274.079,52.4,274.079z M53.285,184.807c0.289-0.249,0.308,0.157,0.356,0.409&#x9;&#x9;C53.304,185.435,53.318,185.081,53.285,184.807z M54.996,199.412c0.549,0.631,1.098,1.263,1.653,1.902&#x9;&#x9;C56.287,204.092,54.22,200.49,54.996,199.412z M57.35,217.921c-0.454-0.479-1.238-0.782-0.241-1.187&#x9;&#x9;C57.373,217.179,58.097,217.755,57.35,217.921z M57.279,205.021c1.242,1.623,2.223,2.067,0.513,3.449&#x9;&#x9;C56.888,207.16,56.153,206.778,57.279,205.021z M58.39,213.945c-0.049-1.069-0.005-2.139-0.097-3.184&#x9;&#x9;c-0.161,0.079-0.199,0.077-0.001-0.02c0-0.001,0-0.002,0-0.003c0,0.001,0,0.002,0,0.003c0.008,0.002,0.024,0.009,0.024,0.009&#x9;&#x9;c-0.009,0.004-0.014,0.006-0.022,0.01C58.297,211.856,59.732,213.776,58.39,213.945z M59.821,190.597&#x9;&#x9;c-0.374-0.272-0.762-0.684-1.185-0.877c-0.005,0.003-0.007,0.004,0,0c-0.001-0.001-0.003-0.002-0.004-0.003&#x9;&#x9;c0.002,0,0.003,0.002,0.004,0.002c0.009-0.01,0.06-0.04,0.06-0.04s-0.05,0.037-0.059,0.04&#x9;&#x9;C58.998,189.968,60.074,190.142,59.821,190.597z M59.521,167.42c0.452-0.84,1.057-1.576,1.383-2.38&#x9;&#x9;C60.481,165.997,60.886,168.144,59.521,167.42z M60.27,184.621c-0.104-0.166-0.097-0.188,0.101-0.165&#x9;&#x9;C60.371,184.456,60.27,184.621,60.27,184.621z M60.895,170.04c0.433-0.442,0.723-0.669,0.823,0.157&#x9;&#x9;C61.311,170.478,60.811,170.689,60.895,170.04z M61.696,224.515c0.057-0.213,0.218-0.282,0.343-0.102&#x9;&#x9;C62.035,224.63,61.861,224.662,61.696,224.515z M63.154,183.234c-0.654-0.659-1.055-1.163-0.073-1.442&#x9;&#x9;C64.43,181.957,64.103,182.333,63.154,183.234z M62.77,175.313c0.011-0.288,0.01-0.378,0.26-0.292&#x9;&#x9;C62.958,175.102,62.887,175.182,62.77,175.313z M66.511,164.823c-7.945-0.966-9.952-15.996-1.304-14.827&#x9;&#x9;C71.744,151.55,72.244,163.407,66.511,164.823z M75.916,248.036l0.136-0.123c-0.481,0.029-0.753-0.41-1.188-0.533&#x9;&#x9;c0.045-0.015,0.077-0.054,0.109-0.028c0.001-0.143-0.253-0.21-0.319-0.144c-0.042-0.055,0.048-0.078,0.052-0.143&#x9;&#x9;c-0.015-0.086-0.4-0.124-0.16-0.169c-0.089,0.007-0.183-0.204-0.245-0.067c-0.058-0.168-0.255-0.195-0.278-0.347&#x9;&#x9;c-0.185,0.039-0.11-0.271-0.306-0.157c0.19-0.13-0.021-0.342-0.174-0.367c0.076-0.009,0.011-0.117,0.114-0.135&#x9;&#x9;c-0.064-0.099-0.156-0.17-0.246-0.09c0.122-0.327-0.429-0.273-0.17-0.558c-0.277-0.256-0.49-0.532-0.658-0.822&#x9;&#x9;c0.218-0.072,0.158,0.328,0.374,0.221c-0.156-0.134-0.779-0.764-0.346-0.633c-0.187-0.266-0.164-0.572-0.341-0.813&#x9;&#x9;c0.021-0.004,0.051,0.019,0.074,0.043c-0.02-0.051,0.003-0.131-0.097-0.101l0.04,0.045c-0.126,0.122-0.359-0.142-0.44-0.137&#x9;&#x9;c0.313,0.029,0.009-0.289,0.413-0.217c-0.028-0.031-0.081-0.067-0.149-0.045c0.011-0.057,0.049-0.081,0.135-0.043&#x9;&#x9;c-0.086-0.182-0.185-0.095-0.211-0.272c0.05-0.007,0.075,0.025,0.136,0.033c-0.111-0.072-0.223-0.149-0.205-0.305&#x9;&#x9;c0.032,0.005,0.068-0.018,0.074,0.027c-0.059-0.251-0.304-0.415-0.239-0.712c0.226,0.07,0.064-0.103,0.252-0.128&#x9;&#x9;c-0.023-0.049-0.047-0.099-0.065-0.149l-0.091,0.066c0.002-0.134-0.138-0.251-0.077-0.369l0.079,0.099l-0.039-0.253l-0.07,0.144&#x9;&#x9;c-0.099-0.137-0.24,0.017-0.189-0.167c0.02,0.038,0.001-0.139,0.112-0.208l0,0c-0.062-0.069-0.117-0.142-0.064-0.242&#x9;&#x9;c0.062-0.023,0.208,0.031,0.25,0.015c-0.154-0.074-0.024-0.318-0.187-0.416c0.038,0.032,0.137,0.041,0.158,0.034l-0.125-0.067&#x9;&#x9;c0.045-0.06,0.065-0.067,0.144-0.049c0.038-0.186-0.25,0.036-0.119-0.178c0.008,0.019,0.028,0.012,0.043,0.051&#x9;&#x9;c0.085-0.217-0.021-0.445,0.071-0.643c0.196-0.028,0.021,0.187,0.19,0.143c0.001-0.295-0.101-0.645-0.001-0.921l-0.032,0.048&#x9;&#x9;c-0.257-0.109,0.188-0.174,0.106-0.347c0.009,0.04,0.13,0.087,0.104,0.069c0.102-0.174,0.04-0.406,0.079-0.714l0.051,0.059&#x9;&#x9;c0.1-0.086,0.144-0.272,0.218-0.376c-0.052-0.063-0.008-0.122-0.12-0.124c0.521-0.175,0.138-0.771,0.612-0.9&#x9;&#x9;c-0.025,0.281,0.103-0.173,0.114-0.195c-0.111-0.046-0.079-0.007-0.188-0.004c-0.04-0.071-0.04-0.173,0.006-0.232&#x9;&#x9;c-0.016,0.153,0.157,0.105,0.244,0.097c-0.035-0.013-0.056-0.051-0.089-0.069c0.261-0.002-0.177-0.158,0.064-0.248l0.043,0.046&#x9;&#x9;c0.021-0.082,0.001-0.193,0.066-0.252c0.127,0.057-0.001,0.108,0.084,0.182c0.058-0.102-0.046-0.345,0.128-0.34&#x9;&#x9;c-0.006,0.063-0.054,0.118-0.059,0.18c0.2,0.015,0.177-0.019,0.254-0.067l-0.008,0.004l0.184-0.097l-0.065,0.007&#x9;&#x9;c-0.162-0.359,0.157-0.26,0.15-0.562c0.002,0.294,0.062,0.115,0.154,0.239c0.066-0.002,0.153-0.016,0.166,0.031&#x9;&#x9;c-0.012-0.153,0.169-0.03,0.156-0.247c0.035,0.036,0.082-0.052,0.141,0.058c0.07-0.098-0.074-0.053-0.105-0.107&#x9;&#x9;c0.057-0.241,0.45-0.094,0.561-0.403c0.159-0.174,0.108-0.409,0.305-0.513c0.063,0.055-0.001,0.17-0.001,0.17&#x9;&#x9;c0.139,0.023,0.213-0.02,0.297-0.115c-0.006,0.049,0.028,0.075,0.077,0.115c0.077-0.041-0.006-0.2,0.13-0.159&#x9;&#x9;c-0.003,0.059-0.002,0.145-0.022,0.214c0.079-0.075,0.153-0.182,0.246-0.253c0.048,0.077-0.03,0.143-0.05,0.206&#x9;&#x9;c0.066-0.043,0.148-0.101,0.21-0.172c-0.072,0.103-0.144-0.021-0.163-0.065l0.068-0.05c-0.146-0.257-0.301,0.11-0.441,0.155&#x9;&#x9;l-0.005-0.183c0.393-0.131,0.804-0.213,1.227-0.226c-0.007,0.084-0.011,0.167-0.008,0.247c-0.01-0.021-0.024-0.039-0.05-0.028&#x9;&#x9;l-0.032,0.173l0.087-0.055c0.002-0.004-0.001-0.011,0-0.017c0.016,0.104,0.058,0.202,0.164,0.283l0.16-0.14l0.045,0.116&#x9;&#x9;l-0.131,0.004c0.071,0.11,0.119,0.016,0.177-0.048c0.009,0.061,0.027,0.104,0.055,0.127c0.056-0.078,0.115-0.139,0.176-0.206&#x9;&#x9;c0.006,0.095-0.089,0.171,0.004,0.239c0.085-0.092-0.042-0.218,0.088-0.265c0.061,0.119,0.022,0.202,0.126,0.126&#x9;&#x9;c0.001,0.062-0.025,0.097-0.063,0.118c0.089-0.058,0.208,0,0.277-0.111c0.043,0.153,0.269,0.047,0.196,0.259&#x9;&#x9;c0.038-0.044,0.186-0.127,0.261-0.114c-0.216,0.201,0.249,0.118,0.103,0.374c0.183-0.179,0.364,0.035,0.574,0.02&#x9;&#x9;c-0.018,0.011-0.054,0.035-0.061,0.016c0.075,0.069,0.062,0.146,0.091,0.216c0.113-0.161,0.277-0.127,0.415-0.173&#x9;&#x9;c-0.01,0.234-0.193,0.146-0.265,0.323c0.085-0.138,0.259-0.004,0.305-0.138c0.005,0.153,0.031,0.096-0.031,0.256&#x9;&#x9;c0.165-0.187,0.094,0.018,0.253-0.054c0.031,0.178-0.119,0.196,0.039,0.24c0.001,0.105-0.152,0.083-0.152,0.083&#x9;&#x9;c0.104,0.104,0.172-0.09,0.266-0.149c0.171,0.087-0.031,0.16-0.051,0.273c0.114,0.039,0.299-0.024,0.358,0.04&#x9;&#x9;c-0.017,0.026-0.013,0.045-0.055,0.059c0.19-0.012,0.242,0.264,0.481,0.25c-0.006,0.019-0.014,0.033-0.023,0.044&#x9;&#x9;c0.057-0.078,0.128-0.142,0.183-0.182c0.05,0.052,0.183,0.027,0.102,0.127c-0.023-0.039-0.065-0.01-0.109-0.001l0.089,0.026&#x9;&#x9;c-0.097,0.163-0.11-0.045-0.214,0.041c0.137,0.073,0.35,0.13,0.38,0.25c-0.126,0.12-0.202-0.177-0.237,0.035l-0.049-0.179&#x9;&#x9;c-0.138,0.273-0.045-0.095-0.205,0.181c0.088,0.206,0.215,0.145,0.304,0.351c0.109-0.014,0.107-0.093,0.217-0.106&#x9;&#x9;c0.318,0.182-0.235,0.446,0.082,0.522c0.128-0.007,0.337-0.097,0.317,0.109l-0.197,0.043c0.08,0.202,0.303-0.021,0.291,0.246&#x9;&#x9;c-0.087-0.002-0.135-0.125-0.141-0.084c-0.071,0.202,0.145,0.043,0.197,0.147l-0.145,0.097c0.136,0.189,0.336,0.383,0.467,0.614&#x9;&#x9;c-0.053,0.005-0.121-0.016-0.147,0.059c0.202,0.271,0.208,0.667,0.192,0.99l0.172,0.079c0.005,0.028-0.053,0.067-0.088,0.044&#x9;&#x9;c-0.027,0.132,0.093-0.017,0.164,0.027c0.027,0.066-0.062,0.11-0.116,0.077c0.182,0.175,0.397,0.555,0.271,0.809l-0.051-0.037&#x9;&#x9;c-0.034,0.183,0.339,0.157,0.22,0.343l-0.029-0.029c-0.032,0.394,0.15,0.822-0.085,1.124c0.215,0.056-0.092,0.381,0.208,0.413&#x9;&#x9;c-0.215,0.244-0.482,0.418-0.129,0.699l-0.156-0.013l0.148,0.156l-0.196,0.052l0.027,0.1c0.015-0.036,0.081-0.072,0.125-0.061&#x9;&#x9;c0.049,0.16-0.159,0.35-0.239,0.34c0.03,0.123,0.054,0.247,0.069,0.371c-0.06-0.02-0.069-0.082-0.098-0.134&#x9;&#x9;c0.117,0.214-0.169,0.001-0.062,0.197c0.04-0.015,0.089,0.031,0.119,0.042c-0.111,0.065-0.153,0.254-0.145,0.405l-0.099-0.054&#x9;&#x9;c-0.1,0.238-0.097,0.538-0.199,0.81c0.085-0.079,0.253,0.003,0.238,0.091l-0.168-0.024c0.076,0.087,0.092-0.063,0.167,0.088&#x9;&#x9;c-0.059,0.098-0.203,0.002-0.231-0.074l0.005,0.144c-0.049-0.011-0.062-0.049-0.118-0.079c0.076,0.089-0.235,0.146-0.098,0.287&#x9;&#x9;l-0.048-0.013c-0.118,0.259-0.13,0.396-0.223,0.611c0.126,0.073,0.053,0.138,0.116,0.254c-0.153,0.16-0.618,0.391-0.321,0.618&#x9;&#x9;c-0.113-0.066-0.226,0.108-0.238-0.034c-0.128,0.214-0.16,0.272-0.295,0.573c0.062,0.01,0.106-0.004,0.126,0.041&#x9;&#x9;c-0.024,0.058-0.129,0.062-0.169,0.013l0-0.021c-0.109,0.416-0.828,0.278-0.876,0.633l0.005-0.02&#x9;&#x9;c-0.049,0.092-0.097,0.191-0.153,0.281c-0.126,0.043,0.016-0.12-0.11-0.143c-0.157,0.33-0.42,0.211-0.592,0.421&#x9;&#x9;c-0.298-0.278-0.633,0.242-0.933,0.028l0.027,0.088c-0.052,0.094-0.085-0.043-0.133-0.059c0.014,0.069,0.079,0.073,0.044,0.126&#x9;&#x9;c-0.554,0.179-1.154-0.118-1.622-0.386C76.18,247.869,76.083,248.34,75.916,248.036z M115.509,299.968&#x9;&#x9;c0.309-0.784,0.687-0.751,1.517-0.256C116.318,300.317,115.805,300.927,115.509,299.968z M142.961,299.291&#x9;&#x9;c-0.154-0.462-0.106-0.761,0.314-1.059C143.655,298.762,143.413,298.98,142.961,299.291z M148.041,306.137&#x9;&#x9;c-0.155-0.119-0.084-0.269,0.113-0.313C148.279,305.983,148.242,306.14,148.041,306.137z M151.225,298.263&#x9;&#x9;c-0.523,0.064-0.525-0.137-0.382-0.598C151.07,297.825,151.414,297.991,151.225,298.263z M173.484,289.594&#x9;&#x9;c-31.004,1.411-55.991,13.121-86.222,2.15c-6.618-1.624-14.223-4.742-7.612-3.488c30.062,4.955,39.238,3.275,70.297,1.651&#x9;&#x9;C150.406,290.298,175.727,287.197,173.484,289.594z M143.508,250.718c0.037,0.249-0.053,0.296-0.282,0.246&#x9;&#x9;C143.191,250.705,143.276,250.668,143.508,250.718z M153.401,259.893c0.013,0.003,0.07-0.024,0.072-0.023&#x9;&#x9;c0,0-0.036,0.016-0.056,0.024c0.064-0.031,0.097,0.05,0.125,0.096l-0.135-0.093c-0.01,0.004-0.012,0.004-0.001-0.001&#x9;&#x9;L153.401,259.893z M156.066,278.554c0.096-0.597,0.215-1.182,0.315-1.764C156.236,277.311,156.644,278.602,156.066,278.554z&#x9;&#x9; M155.794,284.539c-0.621-1.592-1.175-2.098-0.559-3.458C156.469,282.445,157.66,282.576,155.794,284.539z M156.294,258.449&#x9;&#x9;c0.178-0.456,0.483-0.362,0.692,0.077C156.698,258.919,156.387,258.921,156.294,258.449z M156.385,276.786&#x9;&#x9;c-1.913-0.934-2.192-1.512-0.369-2.817C156.142,274.914,156.252,275.855,156.385,276.786z M160.553,275.257&#x9;&#x9;c1.47,0.715-0.039,1.585-0.737,2.718C158.248,276.336,159.28,276.153,160.553,275.257z M163.921,277.333&#x9;&#x9;c0.177-0.162,0.305-0.068,0.291,0.167C164.016,277.616,163.855,277.559,163.921,277.333z M169.54,261.284&#x9;&#x9;c0.076-0.511,0.273-0.485,0.686-0.242C170.008,261.217,169.766,261.546,169.54,261.284z M182.297,292.288&#x9;&#x9;c-0.009,0.002-0.018,0.005-0.027,0.008c0.007-0.006,0.018-0.007,0.025-0.013c-0.008-0.019-0.03-0.038-0.02-0.054l0.033,0.048&#x9;&#x9;c0.305-0.211,0.823-0.167,1.211-0.305c-0.407,0.065-0.807,0.214-1.206,0.312l0.097,0.139&#x9;&#x9;C182.387,292.399,182.325,292.343,182.297,292.288z M182.564,286.405c-0.051-0.243,0.023-0.323,0.268-0.316&#x9;&#x9;C183.115,286.35,182.799,286.36,182.564,286.405z M183.52,291.972c-0.01-0.002,0.032-0.02,0.032-0.02&#x9;&#x9;S183.53,291.974,183.52,291.972z M184.303,290.023c-0.618-0.59-0.705-1.135,0.093-1.346&#x9;&#x9;C185.215,288.981,184.997,289.505,184.303,290.023z M185.897,303.194c-0.465-0.263-0.418-0.411,0.062-0.624&#x9;&#x9;C186.042,302.82,186.282,303.161,185.897,303.194z M185.832,284.912c0.89-0.834,1.482-0.767,1.891,0.177&#x9;&#x9;C187.434,286.464,186.788,285.824,185.832,284.912z M187.934,295.774c0.401-0.368,0.618-0.341,0.855,0.165&#x9;&#x9;C188.427,296.577,188.21,296.214,187.934,295.774z M187.951,292.103c0.488-1.108,1.108-0.263,2.185-0.001&#x9;&#x9;C189.212,292.877,188.84,292.429,187.951,292.103z M189.008,287.782c0,0,0.189,0.033,0.189,0.033&#x9;&#x9;C189.082,287.958,189.054,287.973,189.008,287.782z M196.912,302.857l-0.054-0.212C197.071,302.7,197.103,302.716,196.912,302.857z&#x9;&#x9; M200.764,270.924l-0.02,0.009c0.008-0.006,0.024-0.014,0.023-0.026l0.004,0.009c0.033-0.021,0.092-0.04,0.109-0.047l-0.108,0.05&#x9;&#x9;l0.109,0.248C200.882,271.148,200.745,270.969,200.764,270.924z M202.12,213.823c-2.861,12.137-8.045,28.875-16.828,35.973&#x9;&#x9;c-10.069,12.362-30.252,11.228-37.099,0.674c-37.929-43.724,26.456-135.807,52.557-60.863c0.4,0.156,0.864,0.359,1.445,0.501&#x9;&#x9;c-0.493,0.351-0.861,0.561-1.185,0.68C202.714,199.036,202.707,208.856,202.12,213.823z M204.039,223.133&#x9;&#x9;c0,0,0.005,0.22,0.005,0.22C203.914,223.27,203.909,223.219,204.039,223.133z M207.79,199.18c0,0-0.05-0.064-0.043-0.063&#x9;&#x9;C207.754,199.117,207.79,199.18,207.79,199.18c-1.396-3.694,0.593-1.75,2.673-0.534C210.961,200.77,208.81,199.206,207.79,199.18z&#x9;&#x9; M206.631,191.894c1.499-0.762,1.712,0.098,3.917,0.869C208.059,193.13,208.089,193.137,206.631,191.894z M210.132,183.305&#x9;&#x9;c0,0,0.087-0.033,0.084-0.028C210.214,183.283,210.132,183.305,210.132,183.305z M210.082,154.357&#x9;&#x9;c-2.927,9.63-14.736,11.915-16.395-0.033c-1.44-6.754,6.236-18.583,12.883-13.812C212.139,144.257,211.497,149.803,210.082,154.357&#x9;&#x9;z M212.808,191.574c-0.635-2.161,0.011-2.592,1.029-4.114C215.283,189.16,213.955,189.673,212.808,191.574z M214.712,192.988&#x9;&#x9;l0.16,0.116C214.835,193.089,214.702,193.051,214.712,192.988z M215.605,196.483c-0.114-0.259-0.262-0.503,0.143-0.482&#x9;&#x9;C215.823,196.238,215.944,196.561,215.605,196.483z M217.006,190.788c-0.271-0.123-0.653-0.073-0.443-0.478&#x9;&#x9;C216.845,190.429,217.219,190.354,217.006,190.788z M217.021,182.114c0.684-0.06,1.453,0.146,1.943-0.045&#x9;&#x9;C218.2,182.379,217.116,183.508,217.021,182.114z M219.006,182.136c-0.092-0.095,0.024-0.21,0.043-0.317&#x9;&#x9;C219.118,181.415,219.021,182.001,219.006,182.136z M219.308,188.967c0.939-2.511,1.793-3.467,2.881-0.279&#x9;&#x9;C221.146,190.767,219.916,191.152,219.308,188.967z"/>
        <polygon points="59.343,175.333 59.343,175.333 59.343,175.333 &#x9;"/>
        <polygon points="58.637,189.72 58.636,189.72 58.636,189.72 58.637,189.72 &#x9;"/>
        <polygon points="46.562,185.869 46.567,185.875 46.567,185.875 &#x9;"/>
        <polygon points="252.644,209.347 252.641,209.348 252.641,209.349 252.645,209.347 &#x9;"/>
        <polygon points="79.939,138.864 79.939,138.864 79.938,138.865 79.938,138.865 &#x9;"/>
          </g>
  </svg>