<?xml version="1.0" standalone="no"?>
<svg xmlns:xlink="http://www.w3.org/1999/xlink" id="wave" style="transform:rotate(0deg); transition: 0.3s" viewBox="0 0 1440 490" version="1.1" xmlns="http://www.w3.org/2000/svg"><defs><linearGradient id="sw-gradient-0" x1="0" x2="0" y1="1" y2="0"><stop stop-color="rgba(0, 129, 0, 1)" offset="0%"/><stop stop-color="rgba(166, 196, 32, 1)" offset="100%"/></linearGradient></defs><path style="transform:translate(0, 0px); opacity:1" fill="url(#sw-gradient-0)" d="M0,147L34.3,179.7C68.6,212,137,278,206,302.2C274.3,327,343,310,411,294C480,278,549,261,617,253.2C685.7,245,754,245,823,228.7C891.4,212,960,180,1029,187.8C1097.1,196,1166,245,1234,220.5C1302.9,196,1371,98,1440,65.3C1508.6,33,1577,65,1646,73.5C1714.3,82,1783,65,1851,81.7C1920,98,1989,147,2057,204.2C2125.7,261,2194,327,2263,351.2C2331.4,376,2400,359,2469,310.3C2537.1,261,2606,180,2674,196C2742.9,212,2811,327,2880,367.5C2948.6,408,3017,376,3086,351.2C3154.3,327,3223,310,3291,294C3360,278,3429,261,3497,236.8C3565.7,212,3634,180,3703,212.3C3771.4,245,3840,343,3909,383.8C3977.1,425,4046,408,4114,343C4182.9,278,4251,163,4320,147C4388.6,131,4457,212,4526,277.7C4594.3,343,4663,392,4731,416.5C4800,441,4869,441,4903,441L4937.1,441L4937.1,490L4902.9,490C4868.6,490,4800,490,4731,490C4662.9,490,4594,490,4526,490C4457.1,490,4389,490,4320,490C4251.4,490,4183,490,4114,490C4045.7,490,3977,490,3909,490C3840,490,3771,490,3703,490C3634.3,490,3566,490,3497,490C3428.6,490,3360,490,3291,490C3222.9,490,3154,490,3086,490C3017.1,490,2949,490,2880,490C2811.4,490,2743,490,2674,490C2605.7,490,2537,490,2469,490C2400,490,2331,490,2263,490C2194.3,490,2126,490,2057,490C1988.6,490,1920,490,1851,490C1782.9,490,1714,490,1646,490C1577.1,490,1509,490,1440,490C1371.4,490,1303,490,1234,490C1165.7,490,1097,490,1029,490C960,490,891,490,823,490C754.3,490,686,490,617,490C548.6,490,480,490,411,490C342.9,490,274,490,206,490C137.1,490,69,490,34,490L0,490Z"/></svg>