<?xml version="1.0" standalone="no"?>
<svg xmlns:xlink="http://www.w3.org/1999/xlink" id="wave" style="transform:rotate(0deg); transition: 0.3s" viewBox="0 0 1440 490" version="1.1" xmlns="http://www.w3.org/2000/svg"><defs><linearGradient id="sw-gradient-0" x1="0" x2="0" y1="1" y2="0"><stop stop-color="rgba(0, 129, 0, 1)" offset="0%"/><stop stop-color="rgba(166, 196, 32, 1)" offset="100%"/></linearGradient></defs><path style="transform:translate(0, 0px); opacity:1" fill="url(#sw-gradient-0)" d="M0,0L26.7,49C53.3,98,107,196,160,269.5C213.3,343,267,392,320,392C373.3,392,427,343,480,294C533.3,245,587,196,640,155.2C693.3,114,747,82,800,122.5C853.3,163,907,278,960,343C1013.3,408,1067,425,1120,359.3C1173.3,294,1227,147,1280,114.3C1333.3,82,1387,163,1440,204.2C1493.3,245,1547,245,1600,245C1653.3,245,1707,245,1760,253.2C1813.3,261,1867,278,1920,277.7C1973.3,278,2027,261,2080,285.8C2133.3,310,2187,376,2240,392C2293.3,408,2347,376,2400,326.7C2453.3,278,2507,212,2560,196C2613.3,180,2667,212,2720,236.8C2773.3,261,2827,278,2880,245C2933.3,212,2987,131,3040,114.3C3093.3,98,3147,147,3200,179.7C3253.3,212,3307,229,3360,212.3C3413.3,196,3467,147,3520,147C3573.3,147,3627,196,3680,196C3733.3,196,3787,147,3813,122.5L3840,98L3840,490L3813.3,490C3786.7,490,3733,490,3680,490C3626.7,490,3573,490,3520,490C3466.7,490,3413,490,3360,490C3306.7,490,3253,490,3200,490C3146.7,490,3093,490,3040,490C2986.7,490,2933,490,2880,490C2826.7,490,2773,490,2720,490C2666.7,490,2613,490,2560,490C2506.7,490,2453,490,2400,490C2346.7,490,2293,490,2240,490C2186.7,490,2133,490,2080,490C2026.7,490,1973,490,1920,490C1866.7,490,1813,490,1760,490C1706.7,490,1653,490,1600,490C1546.7,490,1493,490,1440,490C1386.7,490,1333,490,1280,490C1226.7,490,1173,490,1120,490C1066.7,490,1013,490,960,490C906.7,490,853,490,800,490C746.7,490,693,490,640,490C586.7,490,533,490,480,490C426.7,490,373,490,320,490C266.7,490,213,490,160,490C106.7,490,53,490,27,490L0,490Z"/></svg>